M48
;DRILL file {Pcbnew (2013-jul-07)-stable} date Fri 19 Jun 2015 11:16:37 PM CST
;FORMAT={-:-/ absolute / metric / decimal}
FMAT,2
METRIC,TZ
T1C0.300
T2C0.500
T3C0.600
T4C1.000
T5C1.100
T6C3.000
T7C5.000
%
G90
G05
M71
T1
X3.7Y39.6
X3.7Y38.6
X5.9Y50.3
X6.45Y40.4
X6.5Y36.25
X7.5Y46.6
X8.3Y46.6
X8.5Y45.5
X8.5Y43.5
X8.75Y52.6
X8.75Y50.6
X8.75Y40.5
X9.85Y36.15
X11.85Y56.65
X12.95Y56.65
X14.7Y69.4
X16.3Y51.5
X16.3Y49.5
X16.3Y45.4
X16.4Y53.15
X17.Y53.85
X18.3Y39.5
X18.3Y38.35
X18.4Y41.45
X18.4Y35.55
X20.1Y59.4
X20.1Y58.25
X20.1Y57.
X20.3Y49.65
X20.3Y45.75
X20.35Y64.9
X20.35Y63.9
X24.6Y42.7
X25.95Y45.75
X26.45Y33.45
X27.45Y50.65
X27.65Y47.9
X28.3Y57.4
X28.65Y47.9
X28.85Y50.65
X29.1Y49.65
X29.25Y57.5
X29.3Y41.3
X31.3Y65.55
X32.25Y65.55
X34.1Y38.8
X34.35Y56.15
X34.35Y50.65
X34.55Y47.9
X34.75Y33.3
X35.55Y47.9
X35.75Y50.65
X36.Y49.65
X36.2Y40.8
X36.25Y56.15
X36.55Y33.3
X37.3Y30.7
X38.4Y30.7
X39.9Y51.25
X42.75Y55.35
X43.1Y51.5
X43.25Y54.6
X43.65Y71.
X44.35Y66.8
X44.4Y62.85
X44.45Y58.7
X45.2Y40.75
X45.2Y39.8
X45.3Y66.8
X45.45Y60.75
X45.5Y58.35
X45.55Y62.85
X45.65Y47.9
X45.7Y59.9
X45.9Y44.75
X46.65Y47.9
X46.7Y63.95
X46.95Y44.75
X47.Y62.3
X47.25Y66.8
X47.35Y60.9
X47.35Y60.
X47.55Y55.
X47.55Y53.8
X47.7Y62.9
X47.95Y31.95
X48.4Y64.6
X48.8Y71.
X48.95Y41.35
X49.6Y35.35
X49.9Y41.35
X50.45Y60.95
X50.55Y61.9
X50.55Y35.35
X50.85Y41.35
X51.2Y30.7
X51.5Y35.35
X51.75Y62.6
X51.75Y50.45
X51.75Y44.75
X51.8Y41.35
X51.85Y59.4
X52.35Y49.65
X52.45Y35.35
X52.5Y60.95
X52.55Y31.95
X52.75Y41.35
X52.8Y44.75
X52.85Y81.7
X52.85Y80.45
X52.9Y77.9
X52.9Y76.95
X52.95Y50.45
X53.2Y58.75
X53.8Y60.
X54.1Y40.4
X55.2Y41.35
X55.55Y79.2
X55.55Y77.9
X56.Y41.35
X56.4Y38.1
X56.4Y34.3
X56.45Y56.
X56.65Y64.6
X57.Y71.
X57.4Y56.
X57.8Y49.9
X57.8Y49.
X57.95Y71.
X58.05Y64.6
X58.5Y63.5
X58.8Y31.95
X59.45Y63.5
X59.85Y83.9
X64.Y63.65
X64.Y62.8
X64.2Y50.8
X64.3Y80.2
X64.3Y78.3
X64.65Y31.95
X65.6Y31.95
X68.5Y78.3
X68.6Y72.
X68.6Y70.8
X68.75Y75.05
X68.75Y74.15
X68.8Y82.65
X69.Y66.1
X70.1Y78.1
X70.1Y69.7
X70.1Y68.4
X70.6Y82.05
X70.6Y80.85
X70.8Y71.8
X70.8Y70.7
X72.3Y66.1
X73.Y83.15
X75.6Y66.1
X75.7Y82.65
X78.3Y66.1
X80.6Y82.65
X81.1Y66.1
X82.Y82.4
X82.45Y80.
X83.3Y80.
X84.4Y66.1
X86.8Y82.4
X87.05Y77.2
X87.7Y66.1
X88.3Y10.95
X88.35Y24.7
X90.15Y73.65
X90.85Y72.05
X91.Y66.1
X92.75Y67.55
X92.75Y18.25
X92.75Y17.35
X93.7Y18.25
X93.7Y17.35
X93.95Y52.95
X94.Y67.55
X94.Y66.1
X94.25Y58.4
X94.25Y56.3
X94.65Y18.25
X94.65Y17.35
X95.6Y18.25
X95.6Y17.35
T3
X45.Y87.5
X50.Y87.5
X55.Y87.5
X60.Y87.5
X65.Y87.5
X70.Y87.5
X75.Y87.5
X75.Y7.5
X75.Y2.5
X80.Y87.5
X80.Y2.5
X85.Y87.5
X85.Y7.5
X85.Y2.5
X90.Y87.5
X90.Y7.5
X90.Y2.5
X95.Y22.5
X95.Y12.5
X97.5Y80.
X97.5Y75.
X97.5Y70.
X97.5Y65.
X97.5Y60.
X97.5Y55.
X97.5Y50.
X97.5Y45.
X97.5Y40.
X97.5Y35.
X97.5Y30.
X97.5Y25.
X97.5Y20.
X97.5Y15.
X97.5Y10.
T4
X60.8Y62.65
X60.8Y49.35
T5
X12.4Y54.5
X12.4Y38.5
T6
X6.Y29.
X6.Y6.
X79.Y6.
X94.Y29.
T7
X6.Y84.
X21.Y84.
X94.Y84.
X94.Y6.
T2
X3.1Y48.3G85X3.8Y48.3
G05
X3.1Y41.7G85X3.8Y41.7
G05
T0
M30
