<?xml version="1.0" encoding="UTF-8" standalone="no"?>
<!-- Created with Inkscape (http://www.inkscape.org/) -->

<svg
   xmlns:dc="http://purl.org/dc/elements/1.1/"
   xmlns:cc="http://creativecommons.org/ns#"
   xmlns:rdf="http://www.w3.org/1999/02/22-rdf-syntax-ns#"
   xmlns:svg="http://www.w3.org/2000/svg"
   xmlns="http://www.w3.org/2000/svg"
   xmlns:sodipodi="http://sodipodi.sourceforge.net/DTD/sodipodi-0.dtd"
   xmlns:inkscape="http://www.inkscape.org/namespaces/inkscape"
   width="50.0mm"
   height="50.0mm"
   viewBox="0 0 50.000000 50.000000"
   id="svg3402"
   version="1.1"
   inkscape:version="0.91 r13725"
   sodipodi:docname="middle.svg">
  <sodipodi:namedview
     id="base"
     pagecolor="#ffffff"
     bordercolor="#666666"
     borderopacity="1.0"
     inkscape:pageopacity="0.0"
     inkscape:pageshadow="2"
     inkscape:zoom="0.98994949"
     inkscape:cx="-132.8639"
     inkscape:cy="13.296093"
     inkscape:document-units="px"
     inkscape:current-layer="g3478"
     showgrid="true"
     inkscape:window-width="681"
     inkscape:window-height="375"
     inkscape:window-x="683"
     inkscape:window-y="14"
     inkscape:window-maximized="0"
     borderlayer="true">
    <inkscape:grid
       spacingx="2.54"
       spacingy="2.54"
       empspacing="1"
       type="xygrid"
       units="mm"
       id="grid3413" />
  </sodipodi:namedview>
  <defs
     id="defs3404" />
  <metadata
     id="metadata3407">
    <rdf:RDF>
      <cc:Work
         rdf:about="">
        <dc:format>image/svg+xml</dc:format>
        <dc:type
           rdf:resource="http://purl.org/dc/dcmitype/StillImage" />
        <dc:title />
      </cc:Work>
    </rdf:RDF>
  </metadata>
  <g
     inkscape:label="[fixed] BG"
     inkscape:groupmode="layer"
     sodipodi:insensitive="true"
     id="g3417">
    <rect
       x="0"
       y="0"
       width="50.0"
       height="50.0"
       style="stroke:none;fill-opacity:1;fill:#FFFFFF"
       id="rect3419" />
  </g>
  <g
     inkscape:label="B.Cu-disabled"
     inkscape:groupmode="layer"
     id="g3423" />
  <g
     inkscape:label="B.Mask-disabled"
     inkscape:groupmode="layer"
     id="g3425" />
  <g
     inkscape:label="B.Silk-disabled"
     inkscape:groupmode="layer"
     id="g3427" />
  <g
     inkscape:label="F.Cu"
     inkscape:groupmode="layer"
     id="g3429" />
  <g
     inkscape:label="F.Mask-disabled"
     inkscape:groupmode="layer"
     id="g3431" />
  <g
     inkscape:label="F.Silk-disabled"
     inkscape:groupmode="layer"
     id="g3433" />
  <g
     style="display:inline"
     inkscape:label="Dwgs.User"
     inkscape:groupmode="layer"
     id="layer1">
    <rect
       style="display:inline;opacity:1;fill:none;fill-opacity:1;stroke:#008080;stroke-width:0.28222221;stroke-linecap:butt;stroke-miterlimit:4;stroke-dasharray:none;stroke-opacity:1"
       id="rect3812"
       width="31.949617"
       height="30.208101"
       x="10.621119"
       y="11.575796"
       rx="3.3" />
  </g>
  <g
     inkscape:label="Edge.Cuts"
     inkscape:groupmode="layer"
     id="g3421">
    <g
       style="fill:none"
       transform="translate(-8.8666664,89.501584)"
       id="g3478">
      <path
         id="path3693"
         d="M23.733385 -52.99868L46.644999 -52.99868L46.644999 -51.486534L23.733385 -51.486534L23.733385 -52.99868"
         style="opacity:1;fill:none;fill-opacity:1;stroke:#000000;stroke-width:0.28222221;stroke-linecap:butt;stroke-miterlimit:4;stroke-dasharray:none;stroke-opacity:1" />
      <path
         id="path3691"
         d="M20.21169 -81.318629L20.02265 -81.314107L19.833959 -81.30054L19.64596 -81.277925L19.459 -81.246263L19.273423 -81.20555L19.089573 -81.155786L18.907796 -81.096968L18.728437 -81.029097L18.55184 -80.952169L18.378351 -80.866183L18.208315 -80.771139L18.042075 -80.667034L17.879978 -80.553866L17.722368 -80.431635L17.56959 -80.300338L17.42199 -80.159975L17.28162 -80.012372L17.150307 -79.859587L17.02805 -79.701967L16.914849 -79.539856L16.810704 -79.3736L16.715615 -79.203544L16.629582 -79.030034L16.552606 -78.853416L16.484685 -78.674034L16.425821 -78.492233L16.376012 -78.308361L16.33526 -78.122761L16.303564 -77.935779L16.280923 -77.747762L16.267339 -77.559053L16.262811 -77.369999L16.267339 -77.180945L16.280923 -76.992236L16.303564 -76.804219L16.33526 -76.617237L16.376012 -76.431637L16.425821 -76.247765L16.484685 -76.065965L16.552606 -75.886582L16.629582 -75.709964L16.715615 -75.536454L16.810704 -75.366398L16.914849 -75.200142L17.02805 -75.038031L17.150307 -74.880411L17.28162 -74.727626L17.42199 -74.580023L19.490149 -72.511864L19.490149 -51.056363L19.494483 -50.883863L19.507345 -50.713683L19.528529 -50.546032L19.557829 -50.381113L19.595037 -50.219137L19.639945 -50.060308L19.692348 -49.904835L19.752039 -49.752926L19.818809 -49.604784L19.892453 -49.460617L19.972764 -49.320635L20.059534 -49.185044L20.152556 -49.054047L20.251624 -48.927857L20.356531 -48.806674L20.467069 -48.690712L20.583032 -48.580174L20.704213 -48.475269L20.830404 -48.376201L20.9614 -48.283177L21.096992 -48.196408L21.236974 -48.116099L21.38114 -48.042453L21.529281 -47.975682L21.681192 -47.915992L21.836665 -47.863589L21.995493 -47.818682L22.157469 -47.781474L22.322387 -47.752173L22.490039 -47.73099L22.660219 -47.718126L22.832718 -47.713794L48.093259 -47.713794L48.265759 -47.718126L48.435939 -47.73099L48.60359 -47.752173L48.768509 -47.781474L48.930485 -47.818682L49.089311 -47.863589L49.244785 -47.915992L49.396696 -47.975682L49.544838 -48.042453L49.689002 -48.116099L49.828985 -48.196408L49.964578 -48.283177L50.095575 -48.376201L50.221765 -48.475269L50.342945 -48.580174L50.458907 -48.690712L50.569445 -48.806674L50.674353 -48.927857L50.773422 -49.054047L50.866448 -49.185044L50.953214 -49.320635L51.033523 -49.460617L51.107169 -49.604784L51.173937 -49.752926L51.23363 -49.904835L51.286033 -50.060308L51.33094 -50.219137L51.368148 -50.381113L51.397449 -50.546032L51.418632 -50.713683L51.431496 -50.883863L51.435828 -51.056363L51.435828 -74.580574L51.431496 -74.753073L51.418632 -74.923248L51.397449 -75.090892L51.368148 -75.2558L51.33094 -75.417764L51.286033 -75.576577L51.23363 -75.732033L51.173937 -75.883925L51.107169 -76.032047L51.033523 -76.17619L50.953214 -76.31615L50.866448 -76.451719L50.773422 -76.582689L50.674353 -76.708856L50.569445 -76.830011L50.458907 -76.945948L50.342945 -77.056461L50.221765 -77.161342L50.095575 -77.260384L49.964578 -77.353382L49.828985 -77.440128L49.689002 -77.520416L49.544838 -77.594038L49.396696 -77.660789L49.244785 -77.720461L49.089311 -77.772847L48.930485 -77.817741L48.768509 -77.854936L48.60359 -77.884226L48.435939 -77.905403L48.265759 -77.918261L48.093259 -77.922592L25.238773 -77.922592L23.001942 -80.159975L22.854335 -80.300338L22.701539 -80.431635L22.543902 -80.553866L22.38177 -80.667034L22.215489 -80.771139L22.045406 -80.866183L21.871867 -80.952169L21.695219 -81.029097L21.515808 -81.096968L21.333982 -81.155786L21.150085 -81.20555L20.964466 -81.246263L20.77747 -81.277925L20.589445 -81.30054L20.400736 -81.314107L20.21169 -81.318629L20.21169 -81.318629"
         style="opacity:1;fill:none;fill-opacity:1;stroke:#000000;stroke-width:0.28222221;stroke-linecap:butt;stroke-miterlimit:4;stroke-dasharray:none;stroke-opacity:1" />
      <path
         id="rect3838"
         d="M21.734172 -77.994941L21.724437 -77.798299L21.69559 -77.604988L21.648174 -77.416312L21.582727 -77.233576L21.499791 -77.058085L21.399906 -76.891142L21.283611 -76.734053L21.151449 -76.588122L21.005518 -76.45596L20.848429 -76.339665L20.681486 -76.23978L20.505995 -76.156844L20.323259 -76.091397L20.134583 -76.043981L19.941272 -76.015134L19.74463 -76.005399L19.541211 -76.015671L19.343668 -76.045819L19.153001 -76.094845L18.97021 -76.161747L18.796296 -76.245526L18.632258 -76.345182L18.479097 -76.459714L18.337811 -76.588122L18.209403 -76.729408L18.094871 -76.882569L17.995215 -77.046607L17.911436 -77.220521L17.844534 -77.403312L17.795508 -77.593979L17.76536 -77.791522L17.755088 -77.994941L17.764823 -78.191583L17.79367 -78.384894L17.841086 -78.57357L17.906533 -78.756306L17.989469 -78.931797L18.089354 -79.09874L18.205649 -79.255829L18.337811 -79.40176L18.483742 -79.533922L18.640831 -79.650217L18.807774 -79.750102L18.983265 -79.833038L19.166001 -79.898485L19.354677 -79.945901L19.547988 -79.974748L19.74463 -79.984483L19.941272 -79.974748L20.134583 -79.945901L20.323259 -79.898485L20.505995 -79.833038L20.681486 -79.750102L20.848429 -79.650217L21.005518 -79.533922L21.151449 -79.40176L21.283611 -79.255829L21.399906 -79.09874L21.499791 -78.931797L21.582727 -78.756306L21.648174 -78.57357L21.69559 -78.384894L21.724437 -78.191583L21.734172 -77.994941L21.734172 -77.994941"
         style="opacity:1;fill:none;fill-opacity:1;stroke:#000000;stroke-width:0.28222221;stroke-linecap:butt;stroke-miterlimit:4;stroke-dasharray:none;stroke-opacity:1" />
    </g>
  </g>
  <g
     inkscape:label="Drill"
     inkscape:groupmode="layer"
     id="g3435" />
</svg>
