<?xml version="1.0" encoding="UTF-8" standalone="no"?>
<!-- Created with Inkscape (http://www.inkscape.org/) -->

<svg
   xmlns:dc="http://purl.org/dc/elements/1.1/"
   xmlns:cc="http://creativecommons.org/ns#"
   xmlns:rdf="http://www.w3.org/1999/02/22-rdf-syntax-ns#"
   xmlns:svg="http://www.w3.org/2000/svg"
   xmlns="http://www.w3.org/2000/svg"
   xmlns:sodipodi="http://sodipodi.sourceforge.net/DTD/sodipodi-0.dtd"
   xmlns:inkscape="http://www.inkscape.org/namespaces/inkscape"
   width="50.0mm"
   height="50.0mm"
   viewBox="0 0 50.000000 50.000000"
   id="svg3402"
   version="1.1"
   inkscape:version="0.91 r13725"
   sodipodi:docname="middle.svg">
  <sodipodi:namedview
     id="base"
     pagecolor="#ffffff"
     bordercolor="#666666"
     borderopacity="1.0"
     inkscape:pageopacity="0.0"
     inkscape:pageshadow="2"
     inkscape:zoom="3.959798"
     inkscape:cx="66.640421"
     inkscape:cy="113.16194"
     inkscape:document-units="px"
     inkscape:current-layer="g3478"
     showgrid="true"
     inkscape:window-width="1366"
     inkscape:window-height="754"
     inkscape:window-x="0"
     inkscape:window-y="14"
     inkscape:window-maximized="0"
     borderlayer="true">
    <inkscape:grid
       id="grid3413"
       units="mm"
       type="xygrid"
       empspacing="1"
       spacingy="2.54"
       spacingx="2.54" />
  </sodipodi:namedview>
  <defs
     id="defs3404" />
  <metadata
     id="metadata3407">
    <rdf:RDF>
      <cc:Work
         rdf:about="">
        <dc:format>image/svg+xml</dc:format>
        <dc:type
           rdf:resource="http://purl.org/dc/dcmitype/StillImage" />
        <dc:title />
      </cc:Work>
    </rdf:RDF>
  </metadata>
  <g
     id="g3417"
     sodipodi:insensitive="true"
     inkscape:groupmode="layer"
     inkscape:label="[fixed] BG">
    <rect
       id="rect3419"
       style="stroke:none;fill-opacity:1;fill:#FFFFFF"
       height="50.0"
       width="50.0"
       y="0"
       x="0" />
  </g>
  <g
     id="g3423"
     inkscape:groupmode="layer"
     inkscape:label="B.Cu-disabled" />
  <g
     id="g3425"
     inkscape:groupmode="layer"
     inkscape:label="B.Mask-disabled" />
  <g
     id="g3427"
     inkscape:groupmode="layer"
     inkscape:label="B.Silk-disabled" />
  <g
     id="g3429"
     inkscape:groupmode="layer"
     inkscape:label="F.Cu" />
  <g
     id="g3431"
     inkscape:groupmode="layer"
     inkscape:label="F.Mask-disabled" />
  <g
     id="g3433"
     inkscape:groupmode="layer"
     inkscape:label="F.Silk-disabled" />
  <g
     id="layer1"
     inkscape:groupmode="layer"
     inkscape:label="Dwgs.User"
     style="display:inline">
    <rect
       rx="3.3"
       y="11.575796"
       x="10.621119"
       height="30.208101"
       width="31.949617"
       id="rect3812"
       style="display:inline;opacity:1;fill:none;fill-opacity:1;stroke:#008080;stroke-width:0.28222221;stroke-linecap:butt;stroke-miterlimit:4;stroke-dasharray:none;stroke-opacity:1" />
  </g>
  <g
     id="g3421"
     inkscape:groupmode="layer"
     inkscape:label="Edge.Cuts">
    <g
       id="g3478"
       transform="translate(-8.8666664,89.501584)"
       style="fill:none">
      <path
         style="opacity:1;fill:none;fill-opacity:1;stroke:#000000;stroke-width:0.28222221;stroke-linecap:butt;stroke-miterlimit:4;stroke-dasharray:none;stroke-opacity:1"
         d="M 23.733385,-52.99868 46.644999,-52.99868 46.644999,-51.486534 23.733385,-51.486534 23.733385,-52.99868"
         id="path3693" />
      <path
         style="opacity:1;fill:none;fill-opacity:1;stroke:#000000;stroke-width:0.28222221;stroke-linecap:butt;stroke-miterlimit:4;stroke-dasharray:none;stroke-opacity:1"
         d="M 20.21169,-81.318629 20.02265,-81.314107 19.833959,-81.30054 19.64596,-81.277925 19.459,-81.246263 19.273423,-81.20555 19.089573,-81.155786 18.907796,-81.096968 18.728437,-81.029097 18.55184,-80.952169 18.378351,-80.866183 18.208315,-80.771139 18.042075,-80.667034 17.879978,-80.553866 17.722368,-80.431635 17.56959,-80.300338 17.42199,-80.159975 17.28162,-80.012372 17.150307,-79.859587 17.02805,-79.701967 16.914849,-79.539856 16.810704,-79.3736 16.715615,-79.203544 16.629582,-79.030034 16.552606,-78.853416 16.484685,-78.674034 16.425821,-78.492233 16.376012,-78.308361 16.33526,-78.122761 16.303564,-77.935779 16.280923,-77.747762 16.267339,-77.559053 16.262811,-77.369999 16.267339,-77.180945 16.280923,-76.992236 16.303564,-76.804219 16.33526,-76.617237 16.376012,-76.431637 16.425821,-76.247765 16.484685,-76.065965 16.552606,-75.886582 16.629582,-75.709964 16.715615,-75.536454 16.810704,-75.366398 16.914849,-75.200142 17.02805,-75.038031 17.150307,-74.880411 17.28162,-74.727626 17.42199,-74.580023 19.490149,-72.511864 19.490149,-51.056363 19.494483,-50.883863 19.507345,-50.713683 19.528529,-50.546032 19.557829,-50.381113 19.595037,-50.219137 19.639945,-50.060308 19.692348,-49.904835 19.752039,-49.752926 19.818809,-49.604784 19.892453,-49.460617 19.972764,-49.320635 20.059534,-49.185044 20.152556,-49.054047 20.251624,-48.927857 20.356531,-48.806674 20.467069,-48.690712 20.583032,-48.580174 20.704213,-48.475269 20.830404,-48.376201 20.9614,-48.283177 21.096992,-48.196408 21.236974,-48.116099 21.38114,-48.042453 21.529281,-47.975682 21.681192,-47.915992 21.836665,-47.863589 21.995493,-47.818682 22.157469,-47.781474 22.322387,-47.752173 22.490039,-47.73099 22.660219,-47.718126 22.832718,-47.713794 48.093259,-47.713794 48.265759,-47.718126 48.435939,-47.73099 48.60359,-47.752173 48.768509,-47.781474 48.930485,-47.818682 49.089311,-47.863589 49.244785,-47.915992 49.396696,-47.975682 49.544838,-48.042453 49.689002,-48.116099 49.828985,-48.196408 49.964578,-48.283177 50.095575,-48.376201 50.221765,-48.475269 50.342945,-48.580174 50.458907,-48.690712 50.569445,-48.806674 50.674353,-48.927857 50.773422,-49.054047 50.866448,-49.185044 50.953214,-49.320635 51.033523,-49.460617 51.107169,-49.604784 51.173937,-49.752926 51.23363,-49.904835 51.286033,-50.060308 51.33094,-50.219137 51.368148,-50.381113 51.397449,-50.546032 51.418632,-50.713683 51.431496,-50.883863 51.435828,-51.056363 51.435828,-74.580574 51.431496,-74.753073 51.418632,-74.923248 51.397449,-75.090892 51.368148,-75.2558 51.33094,-75.417764 51.286033,-75.576577 51.23363,-75.732033 51.173937,-75.883925 51.107169,-76.032047 51.033523,-76.17619 50.953214,-76.31615 50.866448,-76.451719 50.773422,-76.582689 50.674353,-76.708856 50.569445,-76.830011 50.458907,-76.945948 50.342945,-77.056461 50.221765,-77.161342 50.095575,-77.260384 49.964578,-77.353382 49.828985,-77.440128 49.689002,-77.520416 49.544838,-77.594038 49.396696,-77.660789 49.244785,-77.720461 49.089311,-77.772847 48.930485,-77.817741 48.768509,-77.854936 48.60359,-77.884226 48.435939,-77.905403 48.265759,-77.918261 48.093259,-77.922592 25.238773,-77.922592 23.001942,-80.159975 22.854335,-80.300338 22.701539,-80.431635 22.543902,-80.553866 22.38177,-80.667034 22.215489,-80.771139 22.045406,-80.866183 21.871867,-80.952169 21.695219,-81.029097 21.515808,-81.096968 21.333982,-81.155786 21.150085,-81.20555 20.964466,-81.246263 20.77747,-81.277925 20.589445,-81.30054 20.400736,-81.314107 20.21169,-81.318629 20.21169,-81.318629"
         id="path3691" />
      <path
         style="opacity:1;fill:none;fill-opacity:1;stroke:#000000;stroke-width:0.28222221;stroke-linecap:butt;stroke-miterlimit:4;stroke-dasharray:none;stroke-opacity:1"
         d="M 21.734172,-77.994941 21.724437,-77.798299 21.69559,-77.604988 21.648174,-77.416312 21.582727,-77.233576 21.499791,-77.058085 21.399906,-76.891142 21.283611,-76.734053 21.151449,-76.588122 21.005518,-76.45596 20.848429,-76.339665 20.681486,-76.23978 20.505995,-76.156844 20.323259,-76.091397 20.134583,-76.043981 19.941272,-76.015134 19.74463,-76.005399 19.541211,-76.015671 19.343668,-76.045819 19.153001,-76.094845 18.97021,-76.161747 18.796296,-76.245526 18.632258,-76.345182 18.479097,-76.459714 18.337811,-76.588122 18.209403,-76.729408 18.094871,-76.882569 17.995215,-77.046607 17.911436,-77.220521 17.844534,-77.403312 17.795508,-77.593979 17.76536,-77.791522 17.755088,-77.994941 17.764823,-78.191583 17.79367,-78.384894 17.841086,-78.57357 17.906533,-78.756306 17.989469,-78.931797 18.089354,-79.09874 18.205649,-79.255829 18.337811,-79.40176 18.483742,-79.533922 18.640831,-79.650217 18.807774,-79.750102 18.983265,-79.833038 19.166001,-79.898485 19.354677,-79.945901 19.547988,-79.974748 19.74463,-79.984483 19.941272,-79.974748 20.134583,-79.945901 20.323259,-79.898485 20.505995,-79.833038 20.681486,-79.750102 20.848429,-79.650217 21.005518,-79.533922 21.151449,-79.40176 21.283611,-79.255829 21.399906,-79.09874 21.499791,-78.931797 21.582727,-78.756306 21.648174,-78.57357 21.69559,-78.384894 21.724437,-78.191583 21.734172,-77.994941 21.734172,-77.994941"
         id="rect3838" />
    </g>
  </g>
  <g
     id="g3435"
     inkscape:groupmode="layer"
     inkscape:label="Drill" />
</svg>
